<?xml version="1.0" standalone="no"?>
<!DOCTYPE svg PUBLIC "-//W3C//DTD SVG 20010904//EN"
 "http://www.w3.org/TR/2001/REC-SVG-20010904/DTD/svg10.dtd">
<svg version="1.0" xmlns="http://www.w3.org/2000/svg"
 width="512.000000pt" height="512.000000pt" viewBox="0 0 512.000000 512.000000"
 preserveAspectRatio="xMidYMid meet">

<g transform="translate(0.000000,512.000000) scale(0.100000,-0.100000)"
fill="#000000" stroke="none">
<path d="M2380 4240 c-660 -72 -1224 -466 -1510 -1054 -114 -235 -190 -538
-190 -762 0 -43 -5 -52 -49 -99 -52 -55 -81 -104 -101 -171 l-12 -41 -78 -6
c-88 -6 -126 -22 -168 -72 -48 -59 -52 -90 -52 -376 0 -291 4 -311 66 -373 42
-41 84 -56 163 -56 l69 0 7 -33 c12 -55 65 -144 118 -197 62 -62 145 -104 237
-121 224 -40 450 119 499 349 14 68 15 798 1 873 -15 77 -60 166 -114 226
l-48 53 7 67 c30 314 136 572 324 791 253 294 621 462 1010 462 359 0 675
-128 933 -378 214 -207 349 -469 393 -762 24 -158 22 -174 -32 -234 -54 -59
-98 -148 -113 -225 -14 -75 -13 -805 1 -873 18 -86 58 -158 123 -224 70 -69
142 -107 239 -125 129 -24 277 24 374 121 53 53 106 142 118 197 l7 33 69 0
c79 0 121 15 163 56 62 62 66 82 66 373 0 286 -4 317 -52 376 -42 50 -80 66
-168 72 l-78 6 -12 41 c-20 66 -49 115 -98 168 l-46 49 -7 120 c-45 720 -522
1370 -1197 1629 -259 100 -603 148 -862 120z m341 -201 c649 -66 1197 -489
1422 -1099 41 -112 83 -293 93 -402 l7 -78 -71 0 -71 0 -6 48 c-27 214 -70
363 -156 537 -149 303 -389 543 -694 695 -242 120 -394 155 -685 155 -224 0
-288 -9 -469 -67 -571 -182 -1003 -711 -1057 -1297 l-7 -71 -73 0 c-41 0 -74
3 -74 8 1 46 34 242 54 320 138 546 566 1000 1108 1176 225 73 453 98 679 75z
m-1664 -1804 c60 -30 100 -78 119 -143 22 -70 20 -778 -2 -851 -31 -105 -152
-184 -256 -167 -88 14 -173 85 -196 165 -8 26 -12 163 -12 437 0 398 0 399 24
449 24 53 70 99 121 121 52 23 144 17 202 -11z m3206 12 c52 -22 98 -68 123
-122 24 -50 24 -51 24 -449 0 -274 -4 -411 -12 -437 -14 -50 -69 -114 -118
-139 -93 -48 -200 -30 -275 45 -72 72 -75 90 -75 525 0 409 3 436 55 503 56
74 191 110 278 74z m-3755 -579 l2 -238 -45 0 -45 0 0 233 c0 129 3 237 7 241
4 4 23 6 43 4 l35 -3 3 -237z m4190 0 l2 -238 -45 0 -45 0 0 233 c0 129 3 237
7 241 4 4 23 6 43 4 l35 -3 3 -237z"/>
<path d="M2357 2439 c-43 -25 -47 -54 -47 -334 l0 -266 -84 45 c-96 53 -131
57 -175 20 -26 -21 -31 -33 -31 -68 0 -23 6 -50 13 -60 7 -10 50 -39 96 -66
95 -54 99 -40 -27 -114 -70 -42 -82 -59 -82 -111 0 -27 8 -44 29 -66 43 -42
80 -39 173 16 43 25 80 45 83 45 3 0 5 -121 5 -270 l0 -270 29 -32 c52 -58 73
-51 346 106 368 212 400 233 413 261 17 38 15 69 -8 98 -11 14 -119 83 -240
152 -121 70 -222 131 -225 135 -3 4 99 68 226 141 237 137 259 155 259 213 0
14 -12 39 -27 55 -16 16 -166 109 -334 205 -313 180 -344 193 -392 165z m350
-372 c51 -28 93 -55 93 -58 0 -6 -276 -169 -286 -169 -2 0 -4 77 -4 170 l0
170 53 -30 c28 -17 94 -54 144 -83z m0 -690 c51 -28 93 -55 93 -59 0 -6 -276
-168 -286 -168 -2 0 -4 77 -4 170 l0 170 53 -30 c28 -17 94 -54 144 -83z"/>
</g>
</svg>
