<?xml version="1.0" standalone="no"?>
<!DOCTYPE svg PUBLIC "-//W3C//DTD SVG 20010904//EN"
 "http://www.w3.org/TR/2001/REC-SVG-20010904/DTD/svg10.dtd">
<svg version="1.0" xmlns="http://www.w3.org/2000/svg"
 width="512.000000pt" height="512.000000pt" viewBox="0 0 512.000000 512.000000"
 preserveAspectRatio="xMidYMid meet">

<g transform="translate(0.000000,512.000000) scale(0.100000,-0.100000)"
fill="#000000" stroke="none">
<path d="M4437 4583 c-175 -175 -325 -330 -333 -345 -12 -23 -14 -312 -14
-1993 l0 -1967 29 -29 29 -29 348 0 348 0 28 27 28 27 0 2287 0 2286 -26 27
c-21 20 -36 26 -72 26 l-46 0 -319 -317z m263 -2098 l0 -2065 -205 0 -205 0 0
1862 0 1863 202 202 c112 112 204 203 205 203 2 0 3 -929 3 -2065z"/>
<path d="M3133 3277 l-333 -333 0 -1333 0 -1333 29 -29 29 -29 350 0 350 0 26
31 26 31 0 1635 0 1635 -29 29 c-23 23 -38 29 -72 29 l-43 0 -333 -333z m277
-1437 l0 -1420 -205 0 -205 0 0 1217 0 1218 202 202 c112 112 204 203 205 203
2 0 3 -639 3 -1420z"/>
<path d="M1843 1987 l-333 -333 0 -686 0 -686 26 -31 26 -31 350 0 350 0 29
29 29 29 0 992 0 992 -29 29 c-23 23 -38 29 -72 29 l-43 0 -333 -333z m277
-792 l0 -775 -205 0 -205 0 0 572 0 573 202 202 c112 112 204 203 205 203 2 0
3 -349 3 -775z"/>
<path d="M875 1011 c-16 -10 -171 -160 -342 -333 l-313 -314 0 -46 c0 -36 6
-51 26 -72 l27 -26 349 0 350 0 29 29 29 29 0 347 0 347 -29 29 c-35 35 -81
38 -126 10z m-45 -461 l0 -130 -132 0 -133 0 130 130 c71 72 131 130 132 130
2 0 3 -58 3 -130z"/>
</g>
</svg>
